<?xml version="1.0" encoding="UTF-8"?>
<svg width="1024px" height="487px" viewBox="0 0 1024 487" version="1.1" xmlns="http://www.w3.org/2000/svg" xmlns:xlink="http://www.w3.org/1999/xlink">
<!-- Generator: Sketch 43.1 (39012) - http://www.bohemiancoding.com/sketch -->
<title>Background Wave2 Copy 2</title>
<desc>Created with Sketch.</desc>
<defs>
  <rect id="path-1" x="0" y="0" width="1024" height="628"></rect>
</defs>
<g id="Nurse" stroke="none" stroke-width="1" fill="none" fill-rule="evenodd">
  <g id="Background-Wave2-Copy-2" transform="translate(0.000000, -141.000000)">
      <mask id="mask-2" fill="white">
          <use xlink:href="#path-1"></use>
      </mask>
      <g id="Mask"></g>
      <g id="Background-Wave2" mask="url(#mask-2)" fill-opacity="0.5" fill="#58A286" fill-rule="nonzero">
          <g transform="translate(-292.000000, 101.000000)">
              <path class="kiwi" d="M1726,198.52 L1997,238.35 L1747.54,572.24 L0,572.24 L0,203.52 C135.33,158.77 347.11,155.52 488.11,197.52 C904.11,310.04 932.11,469.01 1242.57,434.52 C1366.16,418.16 1548.55,352 1726,198.52 Z" id="Combined-Shape-Copy-3"></path>
              <path d="M104,216.82 L104,572.37 L1568.8,572.37 L1643.05,273.31 C1572.55,139.82 1392.56,80.51 1175.05,124.01 C927.4,186.37 815.51,373.01 534.58,373.01 C429.82,373 208.48,304.91 104,216.82 Z" id="Combined-Shape"></path>
              <path d="M90,396.27 L90,574.27 L1759.48,574.27 L1896.54,56.72 C1736.8,-1.35 1607.73041,-28.4933305 1395.6263,43.9998608 C955.661124,-2.74653348 842.6,450.99 462.17,450.05 C381.08,449.85 223.31,433.02 90,396.27 Z" id="Combined-Shape-Copy"></path>
          </g>
      </g>
  </g>
</g>
</svg>
